<?xml version="1.0" encoding="iso-8859-1"?>
<!-- Generator: Adobe Illustrator 18.1.1, SVG Export Plug-In . SVG Version: 6.00 Build 0)  -->
<svg version="1.1" id="Capa_1" xmlns="http://www.w3.org/2000/svg" xmlns:xlink="http://www.w3.org/1999/xlink" x="0px" y="0px"
	 viewBox="0 0 29.524 29.524" style="enable-background:new 0 0 29.524 29.524;" xml:space="preserve">
<g>
	<path style="fill:#030104;" d="M26.565,2.802c-3.686-3.717-9.691-3.738-13.406-0.049c-3.506,3.482-3.723,9.025-0.633,12.762
		l0.033,0.035c0.625,0.715,0.869,0.979,1.398,1.365c3.711,2.945,9.121,2.715,12.564-0.707C30.237,12.519,30.259,6.515,26.565,2.802z
		 M24.852,14.526c-2.787,2.771-7.29,2.752-10.056-0.033c-2.768-2.787-2.754-7.289,0.034-10.059
		c2.783-2.768,7.289-2.746,10.055,0.037C27.655,7.257,27.64,11.761,24.852,14.526z"/>
	<polygon style="fill:#030104;" points="0.203,26.937 2.592,29.524 12.921,18.325 11.199,16.599 	"/>
</g>
<g>
</g>
<g>
</g>
<g>
</g>
<g>
</g>
<g>
</g>
<g>
</g>
<g>
</g>
<g>
</g>
<g>
</g>
<g>
</g>
<g>
</g>
<g>
</g>
<g>
</g>
<g>
</g>
<g>
</g>
</svg>
