<svg width="100%" height="100%" viewBox="0 0 144 144" fill="none" xmlns="http://www.w3.org/2000/svg">
<path fill-rule="evenodd" clip-rule="evenodd" d="M6 12C2.68629 12 0 14.6863 0 18V27V120C0 123.314 2.68629 126 6 126H138C141.314 126 144 123.314 144 120V33C144 29.6863 141.314 27 138 27H63L53.0752 15.9724C50.7995 13.4439 47.5575 12 44.1557 12H6Z" fill="url(#paint0_linear_8_245)"/>
<path d="M45.5978 39H6C2.68629 39 0 41.6863 0 45V117C0 120.314 2.68629 123 6 123H138C141.314 123 144 120.314 144 117V36C144 32.6863 141.314 30 138 30H61.875L52.6559 36.7048C50.6048 38.1965 48.1339 39 45.5978 39Z" fill="url(#paint1_linear_8_245)"/>
<path fill-rule="evenodd" clip-rule="evenodd" d="M6 39H45.5978C48.1339 39 50.6048 38.1965 52.6559 36.7048L61.875 30H138C141.314 30 144 32.6863 144 36V39C144 35.6863 141.314 33 138 33H61.875L52.6559 39.7048C50.6048 41.1965 48.1339 42 45.5978 42H6C2.68629 42 0 44.6863 0 48V45C0 41.6863 2.68629 39 6 39Z" fill="url(#paint2_linear_8_245)" fill-opacity="0.2"/>
<path d="M24 99C24 89.0589 32.0589 81 42 81H102C111.941 81 120 89.0589 120 99V123H24V99Z" fill="url(#paint3_linear_8_245)"/>
<path d="M45 99H99" stroke="#114A8B" stroke-width="6" stroke-linecap="round"/>
<defs>
<linearGradient id="paint0_linear_8_245" x1="12" y1="12" x2="135" y2="126" gradientUnits="userSpaceOnUse">
<stop stop-color="#FFBF18"/>
<stop offset="1" stop-color="#E0A42C"/>
</linearGradient>
<linearGradient id="paint1_linear_8_245" x1="12" y1="30" x2="115.403" y2="143.806" gradientUnits="userSpaceOnUse">
<stop stop-color="#FFE69D"/>
<stop offset="1" stop-color="#FFCB3D"/>
</linearGradient>
<linearGradient id="paint2_linear_8_245" x1="0" y1="30" x2="144.474" y2="42.5411" gradientUnits="userSpaceOnUse">
<stop stop-color="white"/>
<stop offset="1" stop-color="white" stop-opacity="0"/>
</linearGradient>
<linearGradient id="paint3_linear_8_245" x1="36" y1="81" x2="111" y2="123" gradientUnits="userSpaceOnUse">
<stop stop-color="#0E8FE0"/>
<stop offset="1" stop-color="#075BA6"/>
</linearGradient>
</defs>
</svg>
